<?xml version="1.0" encoding="UTF-8"?>
<svg width="88px" height="38px" viewBox="0 0 88 38" version="1.1" xmlns="http://www.w3.org/2000/svg" xmlns:xlink="http://www.w3.org/1999/xlink">
    <!-- Generator: Sketch 48.2 (47327) - http://www.bohemiancoding.com/sketch -->
    <title>fish</title>
    <desc>Created with Sketch.</desc>
    <defs>
        <polygon id="path-1" points="0.76875 0.2025 73.02 0.2025 73.02 37.4999013 0.76875 37.4999013"></polygon>
    </defs>
    <g id="Desktop" stroke="none" stroke-width="1" fill="none" fill-rule="evenodd" transform="translate(-112.000000, -2716.000000)">
        <g id="history" transform="translate(1.000000, 2342.000000)">
            <g id="fish" transform="translate(111.000000, 372.000000)">
                <path d="M19.4055,22.66625 C19.4055,22.66625 2.423,14.87375 0.6505,9.28125 C0.6505,9.28125 -3.2995,21.29375 8.268,25.26375 C8.268,25.26375 2.723,29.36125 3.358,37.08625 C3.358,37.08625 17.5105,26.54375 21.1555,25.54875 C24.803,24.55625 19.4055,22.66625 19.4055,22.66625" id="Fill-1" fill="#EE3C24"></path>
                <g id="Group-5" transform="translate(15.000000, 2.298500)">
                    <mask id="mask-2" fill="white">
                        <use xlink:href="#path-1"></use>
                    </mask>
                    <g id="Clip-4"></g>
                    <path d="M73.02125,15.602 C73.02125,15.602 64.44625,0.5945 39.05875,0.207 C13.67375,-0.178 0.76875,22.5195 0.76875,22.5195 C0.76875,22.5195 15.88375,38.2495 42.03125,37.472 C68.17875,36.697 72.25375,19.107 73.02125,15.602" id="Fill-3" fill="#EE3C24" mask="url(#mask-2)"></path>
                </g>
                <path d="M69.857,13.20825 C69.8695,14.89325 68.5245,16.26575 66.8445,16.28075 C65.1745,16.29325 63.807,14.93825 63.792,13.25825 C63.7795,11.57575 65.1245,10.20075 66.802,10.18575 C68.477,10.17575 69.842,11.52575 69.857,13.20825" id="Fill-6" fill="#FFFFFF"></path>
                <path d="M69.03675,13.135 C69.04675,14.135 68.24425,14.955 67.24675,14.96 C66.25425,14.9675 65.43925,14.16 65.43175,13.16 C65.42425,12.1575 66.22425,11.3425 67.21925,11.3325 C68.21675,11.3275 69.02925,12.135 69.03675,13.135" id="Fill-8" fill="#221F1F"></path>
                <path d="M80.2185,13.052 C80.231,14.732 78.886,16.107 77.211,16.122 C75.5335,16.132 74.166,14.777 74.1535,13.0995 C74.141,11.417 75.486,10.0395 77.161,10.0295 C78.841,10.0145 80.2085,11.367 80.2185,13.052" id="Fill-10" fill="#FFFFFF"></path>
                <path d="M79.398,12.97375 C79.408,13.96875 78.6055,14.79375 77.608,14.79875 C76.618,14.80625 75.8005,13.99875 75.793,13.00375 C75.7855,12.00125 76.5855,11.18375 77.5805,11.17125 C78.578,11.16625 79.3905,11.97375 79.398,12.97375" id="Fill-12" fill="#221F1F"></path>
                <path d="M66.615,12.1975 C66.6175,12.4825 66.385,12.725 66.095,12.725 C65.8075,12.7275 65.5725,12.49 65.57,12.2025 C65.565,11.9175 65.8,11.6775 66.0875,11.675 C66.3725,11.675 66.6125,11.905 66.615,12.1975" id="Fill-14" fill="#FFFFFF"></path>
                <path d="M76.781,12.0265 C76.7835,12.319 76.5485,12.554 76.2635,12.554 C75.9735,12.559 75.7385,12.324 75.7335,12.0365 C75.731,11.744 75.966,11.509 76.2535,11.504 C76.5435,11.499 76.7785,11.7365 76.781,12.0265" id="Fill-16" fill="#FFFFFF"></path>
                <path d="M44.49825,6.87525 C44.95075,5.44525 45.40325,4.21025 45.79825,3.22775 C44.91825,3.39775 44.04825,3.59025 43.20825,3.80775 C41.72825,7.83275 39.85325,14.40025 39.90325,21.79275 C39.94575,27.25025 41.06325,33.18275 44.21825,38.80275 C45.14575,38.97275 46.10075,39.12275 47.07075,39.25525 C43.42075,33.58025 42.16075,27.46275 42.11575,21.77275 C42.07075,16.03025 43.27575,10.72775 44.49825,6.87525 M36.84825,7.77025 C37.09075,7.03525 37.33075,6.36275 37.56325,5.74775 C36.58825,6.16775 35.65075,6.61525 34.74575,7.08525 C33.51325,10.85025 32.30325,16.08025 32.34575,22.02775 C32.37575,26.52275 33.14575,31.44525 35.18575,36.40275 C36.10325,36.72525 37.04575,37.03525 38.02575,37.32525 C35.50325,32.07275 34.59075,26.82275 34.55575,22.01275 C34.51325,16.37775 35.67325,11.36525 36.84825,7.77025 M28.93325,10.68275 C27.84575,11.48025 26.82575,12.29025 25.86825,13.11275 C25.26325,15.49025 24.81575,18.35025 24.83825,21.61525 C24.86075,24.92025 25.37075,28.62775 26.66575,32.62775 C27.57075,33.11525 28.52575,33.60025 29.53575,34.08025 C27.73325,29.46775 27.07575,25.26275 27.04825,21.60275 C27.01325,17.02275 27.96825,13.28525 28.93325,10.68275 M57.03325,19.96775 C56.99325,14.90775 58.06575,10.31275 59.14325,6.99525 C59.68825,5.33775 60.23075,4.00525 60.63575,3.08525 C60.65825,3.04275 60.67325,3.00275 60.69075,2.96775 C59.94075,2.87025 59.16825,2.79275 58.38325,2.72525 C57.03825,5.89275 54.76825,12.36275 54.82075,19.98525 C54.85825,26.13775 56.47575,33.06775 61.33825,39.45525 C62.21075,39.35525 63.06825,39.23775 63.88325,39.09775 C58.72075,32.86275 57.08575,26.09275 57.03325,19.96775 M52.08825,5.64775 C52.49325,4.46025 52.89825,3.41275 53.27325,2.51525 C52.45075,2.51775 51.64575,2.54525 50.85325,2.59525 C49.20075,6.80275 47.14575,13.54525 47.19075,21.01525 C47.23325,27.12525 48.72825,33.75025 53.05575,39.75275 C53.97575,39.78275 54.91575,39.79525 55.87075,39.78275 C51.06325,33.86275 49.45825,27.24025 49.40325,21.00275 C49.35825,15.13525 50.71575,9.65275 52.08825,5.64775" id="Fill-18" fill="#FFFFFF"></path>
                <path d="M69.2295,19.473 C69.237,19.478 69.282,19.4855 69.327,19.5205 C69.297,19.498 69.267,19.483 69.2295,19.473 M69.382,24.1905 C68.882,21.963 68.8845,19.7605 68.8845,19.7405 C68.8845,19.6705 68.9145,19.6005 68.967,19.5455 C69.0195,19.498 69.0895,19.468 69.1645,19.468 L69.167,19.468 C69.187,19.468 69.207,19.468 69.2295,19.473 C69.267,19.483 69.297,19.498 69.327,19.5205 C69.3395,19.5255 69.3495,19.5355 69.3595,19.5455 C69.4095,19.6005 69.4395,19.6705 69.4395,19.7405 C69.4445,19.748 69.4395,21.9155 69.9195,24.068 C70.4045,26.248 71.372,28.263 73.072,28.2305 C73.272,28.228 73.4845,28.203 73.7145,28.1505 C76.162,27.593 76.7495,24.5605 76.7445,22.0055 C76.747,20.1855 76.462,18.693 76.462,18.6905 L77.0045,18.5855 C77.007,18.593 77.2995,20.128 77.302,22.0055 C77.297,24.5855 76.757,27.9605 73.842,28.693 C73.572,28.7505 73.3195,28.783 73.072,28.783 C70.862,28.7505 69.877,26.388 69.382,24.1905" id="Fill-20" fill="#FFFFFF"></path>
            </g>
        </g>
    </g>
</svg>