<?xml version="1.0" encoding="UTF-8"?>
<svg width="272px" height="204px" viewBox="0 0 272 204" version="1.1" xmlns="http://www.w3.org/2000/svg" xmlns:xlink="http://www.w3.org/1999/xlink">
    <!-- Generator: Sketch 48.2 (47327) - http://www.bohemiancoding.com/sketch -->
    <title>shark</title>
    <desc>Created with Sketch.</desc>
    <defs>
        <polygon id="path-1" points="5.19859777 4.95614634 96.7353962 4.95614634 96.7353962 80.2111244 5.19859777 80.2111244"></polygon>
        <polygon id="path-3" points="0.000759712334 0.336643902 271.302792 0.336643902 271.302792 160.338399 0.000759712334 160.338399"></polygon>
        <polygon id="path-5" points="2.97663396 2.61886098 37.9468331 2.61886098 37.9468331 67.5365854 2.97663396 67.5365854"></polygon>
    </defs>
    <g id="Desktop" stroke="none" stroke-width="1" fill="none" fill-rule="evenodd" transform="translate(-202.000000, -2427.000000)">
        <g id="history" transform="translate(1.000000, 2342.000000)">
            <g id="shark" transform="translate(201.000000, 80.000000)">
                <path d="M126.945419,177.449261 C126.945419,177.449261 95.0856453,186.899188 92.9401358,204.900285 C92.9401358,204.900285 86.4879849,188.608383 102.829268,171.885285 L126.945419,177.449261 Z" id="Fill-1" fill="#467A7B"></path>
                <path d="M203.197449,68.7345805 C203.197449,68.7345805 215.669525,64.4382146 224.25677,63.5862146 C224.25677,63.5862146 216.971411,71.3061659 220.824996,74.7401415 C224.694204,78.1637268 203.197449,68.7345805 203.197449,68.7345805" id="Fill-3" fill="#467A7B"></path>
                <g id="Group-7" transform="translate(109.358491, 0.238976)">
                    <mask id="mask-2" fill="white">
                        <use xlink:href="#path-1"></use>
                    </mask>
                    <g id="Clip-6"></g>
                    <path d="M5.6970566,43.3829049 C5.6970566,43.3829049 15.1331321,18.9554415 49.2581887,9.92112439 C83.3676226,0.907587805 96.7353962,6.9183439 96.7353962,6.9183439 C96.7353962,6.9183439 58.4963774,39.4969537 60.6575094,80.2111244 C60.6575094,80.2111244 -0.926943396,70.1481732 5.6970566,43.3829049" id="Fill-5" fill="#75B8B9" mask="url(#mask-2)"></path>
                </g>
                <g id="Group-10" transform="translate(0.000000, 31.409707)">
                    <mask id="mask-4" fill="white">
                        <use xlink:href="#path-3"></use>
                    </mask>
                    <g id="Clip-9"></g>
                    <path d="M7.18224906,29.1643756 C-0.936316981,32.9256439 -1.41541132,39.8974976 2.01115472,47.6070585 C5.45855094,55.3425951 11.8898717,67.348522 24.0494943,74.0554244 C36.5840604,80.9597415 53.1753057,84.9288146 59.1900226,86.2172049 C65.2151547,87.4848146 79.4005132,86.6432049 82.4104755,85.7860098 C84.0612679,85.3080585 105.407004,87.7082049 107.766023,97.3607415 C109.713645,105.304083 96.1375698,119.678985 95.9553057,121.7934 C95.5178717,126.526156 88.0033811,125.658571 85.8474566,126.526156 C83.7019472,127.378156 79.817117,131.238132 79.4005132,135.950107 C78.9630792,140.677668 79.4005132,141.103668 84.5559849,142.397254 C89.7270792,143.670059 96.6010415,143.670059 96.6010415,143.670059 C96.6010415,143.670059 106.05274,150.543205 112.077872,153.54079 C118.092589,156.538376 127.966098,158.689156 139.578928,159.541156 C151.186551,160.393156 163.658626,161.686741 174.828815,156.538376 C186.014626,151.395205 217.822325,118.806205 224.258853,101.657107 C230.721419,84.5028146 227.706249,74.2008878 232.861721,68.6317171 C238.0224,63.0521561 243.177872,61.7585707 243.177872,61.7585707 C243.177872,61.7585707 256.441494,82.4143756 271.303834,80.8974 C271.303834,80.8974 231.690023,42.8950829 262.534325,0.336643902 C262.534325,0.336643902 249.166551,1.47957073 239.688815,27.6993512 C233.90323,43.7366927 237.402702,45.9290341 226.852211,43.7574732 C207.678023,39.7987902 184.290928,25.3199854 166.24157,18.872839 C148.181796,12.4620585 120.238098,10.3164732 117.66557,10.7424732 C117.66557,10.7424732 61.5230038,4.04596098 7.18224906,29.1643756" id="Fill-8" fill="#75B8B9" mask="url(#mask-4)"></path>
                </g>
                <g id="Group-13" transform="translate(187.471698, 140.507268)">
                    <mask id="mask-6" fill="white">
                        <use xlink:href="#path-5"></use>
                    </mask>
                    <g id="Clip-12"></g>
                    <path d="M2.97663396,13.4247146 C2.97663396,13.4247146 19.7865962,2.61886098 24.5254642,2.61886098 C24.5254642,2.61886098 45.5483321,31.5089341 34.9718038,66.6851049 C34.6958038,67.5578854 34.2479547,67.4176171 33.1804075,67.5371049 C33.1804075,67.5371049 31.3473509,30.5686171 2.97663396,13.4247146" id="Fill-11" fill="#75B8B9" mask="url(#mask-6)"></path>
                </g>
                <path d="M77.2399019,117.626912 C77.2399019,117.626912 98.3096377,116.764522 100.033336,128.775644 C101.757034,140.77118 96.1641283,156.642278 85.8479774,157.935863 C85.8479774,157.935863 83.7024679,163.515424 93.5863925,163.941424 C103.475525,164.367424 130.127751,163.515424 139.996053,144.631156 C149.900808,125.767668 152.051525,108.176985 150.333034,96.6126439 C148.609336,85.0327171 137.423525,69.1616195 137.423525,69.1616195 C137.423525,69.1616195 139.996053,98.7530341 77.2399019,117.626912" id="Fill-14" fill="#467A7B"></path>
                <path d="M78.9641208,117.195717 C78.9641208,117.195717 85.4110642,124.474083 86.4890264,122.988278 C87.5617811,121.476498 86.2807245,114.395546 86.2807245,114.395546 C86.2807245,114.395546 90.3634415,119.772498 93.1546868,119.772498 C95.9563472,119.772498 93.3786113,111.834351 93.3786113,111.834351 C93.3786113,111.834351 99.8255547,118.265912 101.549253,116.764522 C103.252121,115.252741 101.757555,107.974376 101.757555,107.974376 C101.757555,107.974376 106.699517,114.618937 108.850234,113.117546 C110.990536,111.616156 108.188875,104.97679 108.188875,104.97679 C108.188875,104.97679 113.786989,110.114766 115.942913,108.841961 C118.09363,107.548376 115.734611,100.675229 115.734611,100.675229 C115.734611,100.675229 120.015215,105.82879 122.603366,104.7534 C125.181102,103.683205 121.952423,95.7606439 121.952423,95.7606439 C121.952423,95.7606439 127.550536,99.6154244 129.690838,99.3920341 C131.85197,99.1790341 127.77446,89.9628878 127.77446,89.9628878 C127.77446,89.9628878 131.414536,93.5994732 134.210989,92.316278 C137.007442,91.0226927 132.492498,84.3781317 132.492498,84.3781317 C132.492498,84.3781317 136.570008,84.5911317 138.512423,82.6689366 C140.434008,80.7363512 136.570008,75.3749854 136.570008,75.3749854 C136.570008,75.3749854 95.7324226,114.192937 78.9641208,117.195717" id="Fill-16" fill="#FFFFFF"></path>
                <path d="M111.785728,163.363207 C111.785728,163.363207 112.639766,131.065134 149.899766,114.47711 C149.899766,114.47711 147.603238,136.20311 140.14603,147.91811 C132.709653,159.648695 114.931087,165.659451 111.785728,163.363207" id="Fill-18" fill="#DB4526"></path>
                <path d="M85.6360302,159.00502 C85.6360302,159.00502 85.8495396,151.929263 88.0002566,154.069654 C90.1405585,156.215239 91.6507472,163.716995 91.6507472,163.716995 C91.6507472,163.716995 91.4372377,156.012629 94.4367849,155.571044 C97.4571623,155.145044 100.258823,163.716995 100.258823,163.716995 C100.258823,163.716995 99.3891623,155.145044 102.404332,155.347654 C105.409087,155.571044 108.413842,163.290995 108.413842,163.290995 C108.413842,163.290995 108.189917,155.571044 109.491804,154.069654 C110.783275,152.573459 115.506521,161.3688 115.506521,161.3688 C115.506521,161.3688 114.428558,155.347654 115.298219,153.202068 C116.152257,151.072068 122.380483,160.288215 122.380483,160.288215 C122.380483,160.288215 120.016257,153.425459 121.318143,151.072068 C122.604408,148.713483 127.968181,156.864629 127.968181,156.864629 C127.968181,156.864629 126.681917,150.859068 127.775502,148.287483 C128.837842,145.715898 132.915351,154.069654 132.915351,154.069654 C132.915351,154.069654 130.337615,144.848312 132.49354,142.931312 C134.633842,140.993532 138.07603,148.287483 138.07603,148.287483 C138.07603,148.287483 134.461992,139.486946 137.003275,137.569946 C138.31037,136.582873 142.377464,139.715532 142.377464,139.715532 C142.377464,139.715532 140.02886,132.494312 140.429842,131.1228 C141.299502,128.203141 147.168408,131.185141 147.168408,131.185141 C147.168408,131.185141 144.632332,156.610068 120.339125,162.818239 C96.0511245,169.04719 83.9123321,166.293776 85.6360302,159.00502" id="Fill-20" fill="#FFFFFF"></path>
                <path d="M17.9228151,77.298739 C17.9228151,77.298739 9.33036226,67.0175927 10.2000226,71.719178 C11.0540604,76.446739 17.9228151,77.298739 17.9228151,77.298739" id="Fill-22" fill="#467A7B"></path>
                <path d="M44.1537509,79.4599098 C44.1537509,79.4599098 57.906883,71.719178 54.4594868,70.015178 C51.0120906,68.2955927 43.716317,76.020739 44.1537509,79.4599098" id="Fill-24" fill="#467A7B"></path>
                <path d="M156.777374,65.733878 C156.777374,65.733878 172.68643,92.3173171 167.957977,106.468829 C167.957977,106.468829 175.696392,85.8857561 156.777374,65.733878" id="Fill-26" fill="#467A7B"></path>
                <path d="M164.085125,65.307878 C164.085125,65.307878 179.994181,82.4569756 176.119766,100.889268 C176.119766,100.889268 185.160068,80.7373902 164.085125,65.307878" id="Fill-28" fill="#467A7B"></path>
                <path d="M173.971132,65.733878 C173.971132,65.733878 184.724717,77.7398049 182.136566,91.8913171 C182.136566,91.8913171 188.161698,76.4462195 173.971132,65.733878" id="Fill-30" fill="#467A7B"></path>
                <path d="M61.1241057,117.72562 C61.1241057,117.72562 79.3609358,120.889449 92.0517283,114.56179 C104.737313,108.234132 142.403502,82.1286439 143.590823,69.0733024 C144.783351,56.0283512 138.84154,64.3301561 134.472408,67.8888146 C130.113691,71.4526683 61.1241057,117.72562 61.1241057,117.72562" id="Fill-32" fill="#75B8B9"></path>
                <path d="M143.621026,60.6811024 C143.621026,62.4266634 142.204574,63.8449317 140.454838,63.8449317 C138.694687,63.8449317 137.273026,62.4266634 137.273026,60.6811024 C137.273026,58.9303463 138.694687,57.512078 140.454838,57.512078 C142.204574,57.512078 143.621026,58.9303463 143.621026,60.6811024" id="Fill-34" fill="#000000"></path>
                <path d="M74.9006717,42.7465024 C74.9006717,44.4972585 73.4790113,45.9103317 71.7292755,45.9103317 C69.9795396,45.9103317 68.5578792,44.4972585 68.5578792,42.7465024 C68.5578792,41.0009415 69.9795396,39.5826732 71.7292755,39.5826732 C73.4790113,39.5826732 74.9006717,41.0009415 74.9006717,42.7465024" id="Fill-36" fill="#000000"></path>
                <path d="M143.168491,61.4749171 C143.168491,62.1035268 142.652943,62.6022585 142.033245,62.6022585 C141.403132,62.6022585 140.898,62.1035268 140.898,61.4749171 C140.898,60.8411122 141.403132,60.3371854 142.033245,60.3371854 C142.652943,60.3371854 143.168491,60.8411122 143.168491,61.4749171" id="Fill-38" fill="#FFFFFF"></path>
                <path d="M74.1835925,43.5481098 C74.1835925,44.1819146 73.6732528,44.6754512 73.0431396,44.6754512 C72.4234415,44.6754512 71.9078943,44.1819146 71.9078943,43.5481098 C71.9078943,42.9195 72.4234415,42.4051829 73.0431396,42.4051829 C73.6732528,42.4051829 74.1835925,42.9195 74.1835925,43.5481098" id="Fill-40" fill="#FFFFFF"></path>
            </g>
        </g>
    </g>
</svg>