<?xml version="1.0" encoding="UTF-8"?>
<svg width="144px" height="69px" viewBox="0 0 144 69" version="1.1" xmlns="http://www.w3.org/2000/svg" xmlns:xlink="http://www.w3.org/1999/xlink">
    <!-- Generator: Sketch 48.2 (47327) - http://www.bohemiancoding.com/sketch -->
    <title>Page 1</title>
    <desc>Created with Sketch.</desc>
    <defs></defs>
    <g id="Desktop" stroke="none" stroke-width="1" fill="none" fill-rule="evenodd" transform="translate(-938.000000, -2696.000000)">
        <g id="history" transform="translate(1.000000, 2342.000000)">
            <g id="Page-1" transform="translate(937.000000, 354.000000)">
                <path d="M36.981,12.3702 C36.981,12.3702 26.943,5.2602 15.369,1.3782 C3.807,-2.5278 -1.833,2.9262 0.531,4.7862 C2.907,6.6402 18.999,15.1242 25.185,14.2002 C25.185,14.2002 10.899,17.5842 12.627,28.0182 L38.025,15.7422 L36.981,12.3702 Z" id="Fill-1" fill="#C1D62F"></path>
                <path d="M143.8968,7.6476 C143.8968,7.6476 142.3788,60.8916 90.9528,53.7276 C43.2108,47.0616 33.5508,16.8456 33.2928,12.3036 C33.0348,7.7676 143.8968,7.6476 143.8968,7.6476" id="Fill-3" fill="#17BAB5"></path>
                <path d="M97.473,48.7806 C97.473,48.7806 93.117,47.0466 91.833,49.4046 C90.561,51.7446 75.291,62.6046 73.893,62.9646 C72.501,63.3366 83.055,69.5646 87.543,68.4426 C92.001,67.3326 99.747,53.7846 97.473,48.7806" id="Fill-5" fill="#C1D62F"></path>
                <path d="M128.5392,28.9878 C128.7012,31.9878 126.4272,34.5558 123.4392,34.7298 C120.4692,34.9038 117.9132,32.6118 117.7452,29.6118 C117.5592,26.6118 119.8512,24.0438 122.8212,23.8698 C125.8272,23.7018 128.3712,25.9818 128.5392,28.9878" id="Fill-7" fill="#F27E20"></path>
                <path d="M136.4382,15.915 C136.6002,18.813 134.3922,21.297 131.5122,21.477 C128.6142,21.645 126.1422,19.413 125.9802,16.521 C125.8122,13.617 128.0262,11.139 130.9062,10.971 C133.8042,10.797 136.2762,13.017 136.4382,15.915" id="Fill-9" fill="#FFFFFF"></path>
                <path d="M135.0138,15.8628 C135.1038,17.5848 133.8018,19.0608 132.0858,19.1568 C130.3758,19.2588 128.8878,17.9508 128.7978,16.2168 C128.6898,14.4888 130.0098,13.0068 131.7198,12.9108 C133.4478,12.8148 134.9178,14.1288 135.0138,15.8628" id="Fill-11" fill="#221F1F"></path>
                <path d="M131.721,14.064 C131.769,14.724 131.283,15.27 130.629,15.312 C129.993,15.348 129.435,14.844 129.399,14.196 C129.357,13.548 129.855,12.99 130.497,12.966 C131.145,12.936 131.691,13.422 131.721,14.064" id="Fill-13" fill="#FFFFFF"></path>
                <path d="M63.4182,18.1008 C60.8262,18.2448 58.7922,19.7088 58.8882,21.3468 C58.9782,22.9968 61.1622,24.2208 63.7542,24.0708 C66.3462,23.9148 68.3742,22.4628 68.2902,20.8068 C68.1822,19.1688 66.0162,17.9568 63.4182,18.1008 M87.2382,14.8068 C83.9022,15.0048 81.3102,16.8768 81.4182,18.9888 C81.5382,21.1068 84.3402,22.6728 87.6762,22.4748 C91.0182,22.2828 93.6222,20.4108 93.5022,18.2928 C93.3762,16.1808 90.5742,14.6088 87.2382,14.8068 M63.9342,29.2248 C62.1282,29.3268 60.7062,30.3408 60.7722,31.4988 C60.8382,32.6448 62.3562,33.4908 64.1922,33.3888 C65.9982,33.2868 67.4082,32.2668 67.3482,31.1208 C67.2762,29.9628 65.7582,29.1168 63.9342,29.2248 M65.6922,13.4808 C69.0402,13.2888 71.6382,11.4288 71.5182,9.2988 C71.5182,9.1068 71.4582,8.9148 71.3922,8.7288 C67.2762,8.8548 63.2862,9.0168 59.5422,9.1848 C59.4642,9.4488 59.4342,9.7248 59.4462,10.0008 C59.5662,12.1248 62.3562,13.6788 65.6922,13.4808 M96.8502,11.9028 C100.0362,11.7288 102.5382,10.0068 102.6402,8.0088 C98.7162,8.0748 94.6842,8.1528 90.6162,8.2308 C90.6162,8.2908 90.5862,8.3628 90.6042,8.4228 C90.7302,10.5408 93.5322,12.1008 96.8502,11.9028 M72.2022,22.9848 C70.3782,23.0928 68.9682,24.1128 69.0342,25.2468 C69.0882,26.4108 70.6182,27.2508 72.4242,27.1488 C74.2482,27.0408 75.6702,26.0208 75.5922,24.8748 C75.5382,23.7228 74.0202,22.8828 72.2022,22.9848 M52.6542,11.9208 C49.8942,12.0768 47.7462,13.6248 47.8482,15.3708 C47.9562,17.1108 50.2602,18.3948 53.0082,18.2388 C55.7682,18.0828 57.8982,16.5408 57.8082,14.7948 C57.7062,13.0488 55.4022,11.7648 52.6542,11.9208 M99.9582,14.1288 C98.1402,14.2308 96.7302,15.2448 96.7902,16.4028 C96.8622,17.5428 98.3802,18.3948 100.2042,18.2868 C102.0102,18.1908 103.4322,17.1648 103.3542,16.0188 C103.2942,14.8668 101.7822,14.0208 99.9582,14.1288 M82.4502,12.7308 C85.7862,12.5448 88.3902,10.6788 88.2702,8.5608 C88.2702,8.4648 88.2402,8.3808 88.2102,8.2848 C84.1902,8.3748 80.1882,8.4708 76.2642,8.5848 C76.2162,8.8008 76.1682,9.0168 76.2042,9.2508 C76.3182,11.3748 79.1082,12.9348 82.4502,12.7308 M74.2182,13.6368 C71.4282,13.7868 69.2742,15.3588 69.3642,17.1168 C69.4542,18.8868 71.8002,20.1828 74.5782,20.0208 C77.3502,19.8648 79.5222,18.3108 79.4322,16.5408 C79.3242,14.7708 76.9902,13.4748 74.2182,13.6368" id="Fill-15" fill="#F58725"></path>
            </g>
        </g>
    </g>
</svg>