<?xml version="1.0" encoding="UTF-8"?>
<svg width="208px" height="43px" viewBox="0 0 208 43" version="1.1" xmlns="http://www.w3.org/2000/svg" xmlns:xlink="http://www.w3.org/1999/xlink">
    <!-- Generator: Sketch 57.1 (83088) - https://sketch.com -->
    <title>icon/logo</title>
    <desc>Created with Sketch.</desc>
    <defs>
        <polygon id="path-1" points="0.206541341 0.0329825954 14.6781507 0.0329825954 14.6781507 30.3664122 0.206541341 30.3664122"></polygon>
        <polygon id="path-3" points="0.0403475305 0.0625172986 25.4298905 0.0625172986 25.4298905 16.8348341 0.0403475305 16.8348341"></polygon>
    </defs>
    <g id="Page-1" stroke="none" stroke-width="1" fill="none" fill-rule="evenodd">
        <g id="Tablet" transform="translate(-16.000000, -17.000000)">
            <g id="icon/logo" transform="translate(16.000000, 17.000000)">
                <g id="title" transform="translate(68.000000, 1.700000)">
                    <path d="M1.87408765,1.36667542 L0.000119057725,29.9543166 L2.70677738,29.9543166 L3.53994334,19.2303014 L7.28788052,18.3111334 L9.16161099,29.9543166 L13.3264883,29.9543166 L8.12057025,1.36667542 L1.87408765,1.36667542 Z M4.16428205,4.72753649 L5.99824724,4.72753649 L6.66306558,14.8386174 L4.16428205,15.2471624 L4.16428205,4.72753649 Z" id="Fill-1" fill="#5B3A1C"></path>
                    <g id="Group-21" transform="translate(13.096350, 0.200652)">
                        <path d="M0.230114771,1.26347634 C0.230114771,1.26347634 0.334171222,22.6042901 6.47659737,22.7066015 C12.6192616,22.8084458 13.556484,1.16607023 13.556484,1.16607023 L9.70425229,1.16607023 C9.70425229,1.16607023 9.92736647,18.4041481 6.26848447,17.7019832 C3.98971961,17.2644733 2.93701121,1.06889771 2.93701121,1.06889771 L0.230114771,1.26347634 Z" id="Fill-2" fill="#5B3A1C"></path>
                        <path d="M28.2363492,1.46284351 L28.2363492,4.0161916 C28.2363492,4.0161916 22.3834714,2.97345573 20.7402367,6.36515038 C18.2414531,11.5227687 29.1388067,12.152755 29.1734522,19.6425137 C29.2059553,26.7919351 22.5101488,28.7323489 18.2414531,29.038816 C13.9729956,29.3450496 6.16447564,29.038816 6.16447564,29.038816 L6.16447564,25.974845 C6.16447564,25.974845 11.5782685,25.7704557 16.9920614,25.1575214 C22.4060924,24.5448206 25.6427957,22.1414359 24.1757664,17.9062557 C22.782791,13.8841076 16.0550771,11.5227687 16.5755975,7.18224046 C17.5332978,-0.801790076 28.2363492,1.46284351 28.2363492,1.46284351" id="Fill-4" fill="#5B3A1C"></path>
                        <polygon id="Fill-6" fill="#5B3A1C" points="31.359519 1.16607023 54.3683768 0.747948092 54.3683768 5.0375542 44.7899447 5.5481771 44.6861264 29.1748809 39.4802083 29.1748809 40.1052614 5.75256641 31.359519 6.0588"></polygon>
                        <path d="M62.0726975,3.30120275 C66.5497441,3.19912489 70.7141452,3.60766992 70.7141452,6.92671878 C70.7141452,9.47539511 62.0726975,10.552702 62.0726975,10.552702 L62.0726975,3.30120275 Z M73.3169852,25.7702455 L66.9662081,12.1866485 C66.9662081,12.1866485 74.566377,11.2674806 74.7744899,6.46748519 C74.9828409,1.66725618 70.1933868,0.0330760305 57.179425,0.747854656 C56.8922577,0.763738626 57.179425,29.753618 57.179425,29.753618 L62.0726975,29.753618 L62.0726975,15.1704989 L67.382672,29.753618 L88.2689687,29.753618 L88.2689687,25.1575447 L73.3169852,25.7702455 Z" id="Fill-8" fill="#5B3A1C"></path>
                        <path d="M85.3938199,6.2630258 L81.5503984,6.92384565 L81.5418262,1.86503496 L85.3938199,1.82018611 L85.3938199,6.2630258 Z M79.4914141,0.103783053 L77.4814816,22.7066716 L81.4377698,22.7066716 L82.374516,10.5526319 L85.6021709,9.93993115 L85.6021709,22.7066716 L88.2688258,22.7066716 L88.3409748,0.103783053 L79.4914141,0.103783053 Z" id="Fill-10" fill="#5B3A1C"></path>
                        <polygon id="Fill-12" fill="#5B3A1C" points="92.4512522 0.033029313 92.1612276 30.3662721 109.235534 29.7535713 109.235534 25.4639652 96.5339798 25.4639652 97.0545001 0.033029313"></polygon>
                        <polygon id="Fill-14" fill="#5B3A1C" points="103.301316 4.62905588 102.884852 23.319349 107.570012 23.319349 107.257366 4.62905588"></polygon>
                        <g id="Group-18" transform="translate(112.152377, 0.000000)">
                            <mask id="mask-2" fill="white">
                                <use xlink:href="#path-1"></use>
                            </mask>
                            <g id="Clip-17"></g>
                            <path d="M3.85066019,12.6974116 L3.85066019,3.29480244 L8.01506129,3.29480244 L8.74393268,12.6974116 L3.85066019,12.6974116 Z M9.68067886,0.0329825954 L1.24758209,0.0329825954 L0.206541341,30.3664589 L3.85066019,30.3664589 L4.16306766,15.5572269 L9.57686053,15.5572269 L11.658942,29.7537582 L14.6782459,29.7537582 L9.68067886,0.0329825954 Z" id="Fill-16" fill="#5B3A1C" mask="url(#mask-2)"></path>
                        </g>
                        <path d="M106.84095,1.82027954 C106.84095,2.80742153 106.025404,3.60745969 105.019129,3.60745969 C104.012853,3.60745969 103.197069,2.80742153 103.197069,1.82027954 C103.197069,0.833137557 104.012853,0.0330993893 105.019129,0.0330993893 C106.025404,0.0330993893 106.84095,0.833137557 106.84095,1.82027954" id="Fill-19" fill="#5B3A1C"></path>
                    </g>
                </g>
                <text id="The-Outback" font-family="RobotoSlab-Regular, Roboto Slab" font-size="9.35" font-weight="normal" fill="#000000">
                    <tspan x="68" y="41.45">The Outback</tspan>
                </text>
                <g id="icon">
                    <path d="M17.6827542,35.6199711 C17.7684435,35.6199711 14.5572316,24.0572318 4.66687006,20.4994983 L3.42522997,22.1089592 C3.42522997,22.1089592 6.5935972,23.5913552 6.72204567,26.8949588 C6.72204567,26.8949588 5.26635329,25.7090758 1.79824445,25.327881 L0.685052835,26.9797251 C0.685052835,26.9797251 5.3519571,29.2244261 6.33670024,31.5116794 L5.13109756e-05,31.8504064 L5.13109756e-05,33.8834453 L4.49566244,34.7305166 L1.5413475,35.6199711 L17.6827542,35.6199711 Z" id="Fill-1" fill="#488686"></path>
                    <path d="M5.65273349,15.7873521 L5.65273349,16.8745102 C5.65273349,16.8745102 10.1376548,17.5502723 10.4346599,18.9605915 L6.15763349,18.4610453 L6.24674355,19.5775585 C6.24674355,19.5775585 10.5535303,19.9301595 11.4445454,21.3992737 L6.2764184,20.4884161 L6.33585361,21.7143135 C6.33585361,21.7143135 11.11778,22.2806915 11.9494454,23.6028604 L6.39528883,22.5744974 L7.04864858,24.8956742 C7.04864858,24.8956742 15.4245667,29.6555332 17.9789126,35.6199711 L24.6023044,35.6199711 C24.6023044,35.6199711 23.7561009,16.3456088 5.65273349,15.7873521" id="Fill-3" fill="#61AA9D"></path>
                    <path d="M53.0055719,7.03084429 L53.0055719,8.59792201 C53.0055719,8.59792201 46.540389,9.57214287 46.1122844,11.6050971 L52.2776402,10.8850907 L52.1491917,12.4945516 C52.1491917,12.4945516 45.9409912,13.0028114 44.6565065,15.1204474 L52.1064326,13.8074995 L52.0207432,15.5746495 C52.0207432,15.5746495 45.1275412,16.3911813 43.9286603,18.2970706 L51.9351394,16.8146746 L50.9932409,20.1606614 C50.9932409,20.1606614 38.9192553,27.0220829 35.2371797,35.6199457 L25.6893188,35.6199457 C25.6893188,35.6199457 26.9091518,7.83553244 53.0055719,7.03084429" id="Fill-5" fill="#488686"></path>
                    <polygon id="Fill-7" fill="#F09600" points="33.8670056 35.6199711 15.8417164 35.6199711 22.6065554 16.6876351 14.8141286 17.4923232 14.8141286 12.6216419 30.5274307 6.09903199"></polygon>
                    <polygon id="Fill-9" fill="#5B3A1C" points="18.5391087 12.9604451 14.8141029 12.6216335 17.8936167 11.3432859"></polygon>
                    <path d="M25.0042575,9.4450018 C25.0042575,9.4450018 23.8481357,12.0633684 24.6616712,12.151857 C25.4752067,12.2404302 26.5883983,9.06380701 26.5883983,9.06380701 L27.4875376,9.40270322" id="Stroke-11" stroke="#5B3A1C" stroke-width="0.5"></path>
                    <path d="M27.2568777,14.4743958 C27.2568777,15.199478 26.6626966,15.7873437 25.9295483,15.7873437 C25.196571,15.7873437 24.6023044,15.199478 24.6023044,14.4743958 C24.6023044,13.749229 25.196571,13.1613633 25.9295483,13.1613633 C26.6626966,13.1613633 27.2568777,13.749229 27.2568777,14.4743958" id="Fill-13" fill="#A84B34"></path>
                    <path d="M16.1842599,14.7816442 C16.1842599,14.7816442 16.9645288,15.7578954 18.5390916,15.5440338 C20.7226302,15.2475208 20.7226302,13.1614395 20.7226302,13.1614395" id="Stroke-15" stroke="#5B3A1C" stroke-width="0.5"></path>
                    <path d="M30.5274478,6.09903199 L31.3409834,0 C31.3409834,0 29.49986,0.804688152 29.2857222,3.04955829 C29.0867212,5.13673934 30.5274478,6.09903199 30.5274478,6.09903199" id="Fill-17" fill="#5B3A1C"></path>
                    <path d="M28.7234651,6.84785218 L26.20307,0.592992227 C26.20307,0.592992227 24.4047913,2.24475171 25.38962,4.99779697 C26.1449175,7.10951118 28.7234651,6.84785218 28.7234651,6.84785218" id="Fill-19" fill="#5B3A1C"></path>
                    <g id="Group-23" transform="translate(30.615549, 18.785137)">
                        <mask id="mask-4" fill="white">
                            <use xlink:href="#path-3"></use>
                        </mask>
                        <g id="Clip-22"></g>
                        <path d="M0.0403475305,16.8348341 L5.09251171,16.8348341 C5.09251171,16.8348341 13.955371,6.88155569 22.8182303,8.44871801 L25.429959,1.71436137 L21.8334016,0.61316019 C21.8334016,0.61316019 19.4150298,6.7920519 18.022792,6.54274408 C16.8272463,6.32871327 18.8790867,0.0625172986 18.8790867,0.0625172986 L16.524255,0.0625172986 C16.524255,0.0625172986 15.2826149,6.07686754 13.9982157,6.11916611 C12.7136454,6.16154929 13.9982157,0.0625172986 13.9982157,0.0625172986 L11.5109161,0.200664455 C11.5109161,0.200664455 10.4016584,5.86512085 9.37415607,5.94980261 C8.34656826,6.03448436 9.3313114,0.740225118 9.3313114,0.740225118 C9.3313114,0.740225118 3.08026628,2.94262749 0.0403475305,16.8348341" id="Fill-21" fill="#80D2BC" mask="url(#mask-4)"></path>
                    </g>
                    <path d="M36.2646905,35.6199711 L50.4366109,35.6199711 C50.4366109,35.6199711 48.274623,28.8417085 44.3269275,28.8417085 C39.3098259,28.8417085 36.2646905,35.6199711 36.2646905,35.6199711" id="Fill-24" fill="#488686"></path>
                    <path d="M28.1290959,35.6199711 C28.0706869,35.6199711 30.2602972,27.7359391 37.0039277,25.310031 L37.8506443,26.40751 C37.8506443,26.40751 35.6902812,27.4182768 35.6027105,29.6708453 C35.6027105,29.6708453 36.5953213,28.8622656 38.9599021,28.6022986 L39.7189625,29.7286251 C39.7189625,29.7286251 36.5368268,31.2591569 35.8654227,32.8187055 L40.1860634,33.0497403 L40.1860634,34.4359493 L37.1208312,35.0134941 L39.1351291,35.6199711 L28.1290959,35.6199711 Z" id="Fill-26" fill="#61AA9D"></path>
                    <path d="M25.929591,35.6199711 L10.2757241,35.6199711 C10.2757241,35.6199711 12.801849,33.7140818 15.3278883,33.7987635 C15.3278883,33.7987635 12.0351775,32.5891934 9.8516389,32.9703882 L10.4469317,30.9610365 C10.4469317,30.9610365 13.8721959,30.7492052 16.1842685,31.8080232 C16.1842685,31.8080232 14.4716791,29.648004 10.9179665,28.6738678 L11.1320188,26.6073284 C11.1320188,26.6073284 21.3745447,25.9208225 25.929591,35.6199711" id="Fill-28" fill="#80D2BC"></path>
                </g>
            </g>
        </g>
    </g>
</svg>